<svg width="70" height="71" viewBox="0 0 70 71" fill="none" xmlns="http://www.w3.org/2000/svg">
<path d="M27.4591 9.19623L27.4583 9.19683C22.3191 12.7875 17.3379 16.2721 16.3871 16.9446L16.382 16.9481C15.4296 17.6087 13.8751 18.6948 12.9395 19.3655L12.9367 19.3676L11.5211 20.3713V31.2979C11.5211 37.7801 11.5215 40.9686 11.6595 42.9654C11.7926 44.8911 12.0487 45.6643 12.5927 47.3066L12.6072 47.3504L12.6075 47.3513C13.054 48.7055 13.8729 50.3043 14.8426 51.7839C15.8142 53.2665 16.9056 54.5814 17.8729 55.3917L17.8746 55.3931C18.3209 55.7694 22.2875 58.6078 27.0069 61.9131C27.797 62.4606 30.269 64.1969 32.509 65.7905C33.6318 66.5783 34.6627 67.2838 35.4205 67.7864C35.5337 67.8614 35.6403 67.9316 35.7398 67.9967C35.7507 67.5678 35.76 67.0129 35.7678 66.3318C35.7887 64.5037 35.7983 61.7853 35.7983 58.2024V47.355V47.0045L36.0852 46.8032L38.4643 45.1336C38.4649 45.1332 38.4654 45.1329 38.466 45.1325C39.0829 44.6942 39.7799 44.2024 40.425 43.7472C41.1613 43.2276 41.8301 42.7556 42.2351 42.4655L42.2383 42.4633C44.1704 41.0956 45.6886 40.0283 46.7342 39.3024C47.2566 38.9398 47.6634 38.6606 47.9458 38.4714C48.0862 38.3773 48.2003 38.3024 48.2842 38.2498C48.325 38.2241 48.3662 38.199 48.4029 38.1786C48.4202 38.169 48.447 38.1545 48.4778 38.1405C48.4927 38.1337 48.5192 38.1222 48.5524 38.1111L48.5535 38.1107C48.574 38.1039 48.659 38.0756 48.7702 38.0756C48.9101 38.0756 49.0658 38.1197 49.1989 38.2288C49.3221 38.3296 49.3808 38.4491 49.4084 38.5273C49.457 38.665 49.4475 38.7826 49.4451 38.8117L49.4451 38.8124C49.4386 38.8922 49.4191 38.9568 49.4135 38.9753C49.3972 39.0298 49.375 39.0863 49.3568 39.1307C49.3172 39.2271 49.2591 39.3556 49.19 39.5022C49.0502 39.7987 48.8498 40.2019 48.6217 40.6414L48.6199 40.6447C48.2608 41.3275 47.7073 42.4013 47.236 43.3157C47.1012 43.5773 46.9731 43.8259 46.8582 44.0485C46.445 44.8489 45.6926 46.2989 45.0192 47.5966C44.8524 47.9181 44.6904 48.2302 44.5397 48.5208C44.0788 49.4092 43.5335 50.4627 43.0721 51.3543C42.7723 51.9335 42.5079 52.4444 42.3249 52.7974C41.9887 53.4459 41.4495 54.4826 40.9577 55.4282C40.771 55.787 40.5912 56.1328 40.4319 56.4392C40.4318 56.4394 40.4317 56.4396 40.4316 56.4398L39.4645 58.3142V62.829C39.4645 64.1156 39.4742 65.2845 39.4886 66.1304C39.4896 66.1878 39.4906 66.2436 39.4916 66.2979C40.0206 65.9353 40.7161 65.4518 41.4663 64.9221L41.4684 64.9206C43.0782 63.793 45.9615 61.7721 47.8658 60.4253L47.8701 60.4224C49.7864 59.0891 52.2441 57.3538 53.3374 56.5771L53.3418 56.574C53.9233 56.1679 54.8401 55.5221 55.8275 54.8266C56.6998 54.2122 57.6272 53.5591 58.4268 52.9982C58.427 52.9981 58.4271 52.998 58.4272 52.9979L61.2336 51.0208L61.2694 46.6637C61.2694 46.6635 61.2694 46.6632 61.2694 46.663C61.2807 44.952 61.2845 43.848 61.2733 43.1514C60.9682 43.3575 60.6094 43.6064 60.2367 43.8729L60.2337 43.875C57.5937 45.7414 55.6278 47.1231 54.3164 48.0322C53.6613 48.4863 53.1662 48.8248 52.831 49.0474C52.6646 49.1579 52.5309 49.2443 52.4343 49.3029C52.3885 49.3307 52.3373 49.3606 52.2899 49.3844C52.2705 49.3941 52.2246 49.4168 52.1677 49.435C52.1439 49.4426 52.076 49.4637 51.987 49.468C51.9416 49.4702 51.6439 49.4836 51.4301 49.2219C51.2799 49.0398 51.2765 48.8413 51.2759 48.8067L51.2759 48.8043C51.2744 48.7341 51.2842 48.6789 51.2886 48.656C51.2984 48.6051 51.3123 48.5632 51.3186 48.5444C51.3336 48.5002 51.3527 48.4538 51.3694 48.4146C51.4049 48.3317 51.4559 48.2211 51.5177 48.0914C51.6426 47.8295 51.8247 47.4617 52.0477 47.0203C52.4941 46.1363 53.1109 44.9436 53.7755 43.6839L53.7773 43.6804C54.0441 43.1817 54.7877 41.7368 55.4457 40.4513L55.4498 40.4432C56.0727 39.2263 56.7023 37.9963 56.8748 37.7057C56.8844 37.6875 56.8964 37.6647 56.9106 37.6378C57.1 37.2783 57.6841 36.1698 58.2786 35.0082C58.5832 34.4132 58.9516 33.6978 59.3108 33.0003C59.7305 32.1854 60.1376 31.395 60.4157 30.8492L60.4178 30.8452L61.2822 29.1767L61.2822 24.7791L61.2822 24.7758C61.2887 23.4646 61.279 22.3249 61.2583 21.511C61.2563 21.4339 61.2543 21.3601 61.2522 21.2895C61.2332 21.302 61.214 21.3146 61.1946 21.3275C60.6027 21.7182 59.7969 22.2684 58.9177 22.882C58.3202 23.3021 57.4745 23.8977 56.5014 24.5831C54.6249 25.9048 52.2747 27.5602 50.3163 28.9339C47.3423 31.0199 43.0936 34.0131 40.8797 35.5805L40.877 35.5824C39.7092 36.4006 38.6762 37.1079 37.9199 37.6055C37.543 37.8535 37.2278 38.054 36.9964 38.191C36.8828 38.2583 36.7766 38.3179 36.6878 38.3609C36.6459 38.3811 36.5877 38.4076 36.5244 38.428C36.4939 38.4378 36.4397 38.4536 36.3728 38.4615C36.3297 38.4666 36.1714 38.4841 35.9952 38.4021C35.9457 38.3793 35.906 38.3552 35.8962 38.3492L35.8945 38.3481C35.8666 38.3314 35.8349 38.3114 35.802 38.2901C35.7352 38.247 35.6474 38.1884 35.5428 38.1174C35.3328 37.975 35.0439 37.7752 34.6981 37.5328C34.0063 37.0481 33.0801 36.3887 32.0865 35.668C31.0898 34.9561 30.1809 34.3097 29.5167 33.8414C29.4938 33.8253 29.4713 33.8094 29.449 33.7937C29.4444 34.306 29.4402 34.9608 29.4364 35.7302C29.4268 37.702 29.4203 40.4224 29.4203 43.4153C29.4203 46.8508 29.4075 49.5754 29.3849 51.4423C29.3736 52.375 29.3598 53.0973 29.3439 53.5883C29.336 53.8323 29.3273 54.0267 29.3176 54.1635C29.3129 54.2291 29.3069 54.2964 29.2984 54.3538C29.2949 54.3778 29.2869 54.4288 29.2698 54.485C29.2629 54.5081 29.242 54.5751 29.1965 54.6498L29.1957 54.651C29.1748 54.6855 28.9984 54.9756 28.6174 54.9756C28.4647 54.9756 28.3409 54.9219 28.3189 54.9123C28.3178 54.9119 28.317 54.9115 28.3164 54.9113C28.2703 54.8918 28.2263 54.8693 28.1904 54.85C28.1165 54.8102 28.0294 54.7579 27.9365 54.6996C27.7483 54.5817 27.5003 54.4167 27.2153 54.2215C26.6433 53.83 25.8998 53.302 25.1405 52.7508C23.6449 51.6652 22.0159 50.4377 21.5496 49.9975C19.9536 48.5008 18.8185 46.617 18.2574 44.551L18.2569 44.5491C18.0446 43.7584 17.9261 42.8483 17.8578 41.1896C17.7895 39.5324 17.7703 37.0885 17.7703 33.2159L17.7703 33.2148L17.7832 25.5556L17.7838 25.2076L18.0678 25.0065L20.978 22.9459L20.981 22.9438C21.2751 22.7379 21.5461 22.5481 21.7958 22.3731C23.176 21.4057 23.9077 20.8929 24.3184 20.6567C24.4447 20.584 24.5723 20.5185 24.6983 20.4748C24.8267 20.4302 24.9996 20.3918 25.1952 20.4269C25.3973 20.4631 25.5348 20.5625 25.6063 20.6203C25.6345 20.6431 25.6626 20.6682 25.6769 20.681L25.6818 20.6853C25.6985 20.7001 25.7065 20.707 25.7133 20.7123L25.7136 20.7126C26.4769 21.3171 32.9371 25.8193 33.6818 26.2773C37.3 28.479 42.0234 28.7666 45.9849 27.0144C47.4408 26.3617 48.2991 25.7741 49.4638 24.602C50.5355 23.5235 51.1005 22.614 51.6222 21.1C51.7795 20.6377 51.8513 20.3888 51.8922 20.0699C51.9357 19.7309 51.9463 19.2978 51.9463 18.4677C51.9463 17.6167 51.9355 17.191 51.8883 16.8515C51.8435 16.5288 51.7638 16.2692 51.5837 15.7448L51.5826 15.7419C51.3935 15.1827 50.9651 14.2834 50.6699 13.8079L50.6686 13.8059C50.4083 13.3834 50.2388 13.1115 49.9923 12.8227C49.7462 12.5343 49.4073 12.2113 48.8051 11.7306C47.5885 10.7593 45.401 9.22388 40.9789 6.12482C38.7933 4.59462 36.8422 3.2253 36.4114 2.92048L27.4591 9.19623ZM43.3186 15.6201L43.3186 15.6201L43.3226 15.6262C43.5055 15.909 43.6604 16.1659 43.7481 16.4871C43.8326 16.7966 43.8428 17.123 43.8428 17.5216C43.8428 18.3444 43.6603 19.0745 43.2194 19.707C42.7844 20.3309 42.1409 20.7977 41.3299 21.1777L41.3271 21.179C40.9826 21.3384 40.6909 21.4511 40.3513 21.5161C40.0219 21.5791 39.6778 21.5913 39.2411 21.5913V21.5914L39.2269 21.5911C38.5972 21.5779 37.8674 21.5004 37.4161 21.3264C37.2723 21.2716 37.0681 21.1551 36.8707 21.037C36.651 20.9056 36.3761 20.7329 36.066 20.5322C35.4449 20.1302 34.6688 19.6073 33.8844 19.0592L33.8839 19.0589C32.7672 18.2774 32.0508 17.763 31.629 17.4268C31.4261 17.2651 31.2514 17.1137 31.135 16.9747C31.083 16.9125 30.9867 16.7889 30.9403 16.6197C30.9144 16.5248 30.898 16.3934 30.9345 16.2456C30.9716 16.095 31.0521 15.9745 31.1457 15.8876C31.1924 15.8439 31.2509 15.799 31.2835 15.774L31.2874 15.771C31.3425 15.7287 31.4149 15.6745 31.501 15.6108C31.6739 15.483 31.9111 15.3106 32.1946 15.1066C32.762 14.6983 33.5207 14.159 34.3335 13.5876L34.3362 13.5857L37.2979 11.5251L37.6826 11.2575L38.0675 11.5248L39.3508 12.416C39.3516 12.4165 39.3523 12.417 39.353 12.4175C40.079 12.9134 41.1249 13.6541 41.6975 14.0731C42.3529 14.5446 42.995 15.1316 43.3186 15.6201Z" fill="#09547C" stroke="#3A7696" stroke-width="1.34831"/>
</svg>
