<svg width="32" height="32" viewBox="0 0 32 32" fill="none" xmlns="http://www.w3.org/2000/svg">
<path d="M25.4161 27.959C22.8103 30.5648 16.1371 28.1163 10.511 22.4903C4.88497 16.8642 2.43652 10.191 5.04227 7.58522L6.75796 5.86953C7.9424 4.68509 9.89406 4.7164 11.1171 5.93946L13.7746 8.59691C14.9976 9.81997 15.0289 11.7716 13.8445 12.9561L13.476 13.3246C12.8365 13.9641 12.7739 14.9957 13.3681 15.7158C13.9413 16.4103 14.5592 17.1021 15.2292 17.7721C15.8991 18.4421 16.591 19.06 17.2855 19.6331C18.0056 20.2274 19.0372 20.1648 19.6767 19.5253L20.0452 19.1568C21.2297 17.9723 23.1813 18.0037 24.4044 19.2267L27.0618 21.8842C28.2849 23.1072 28.3162 25.0589 27.1318 26.2433L25.4161 27.959Z" stroke="#09547C" stroke-width="2"/>
<path d="M23.5016 13.001C23.1763 12.2075 22.6914 11.464 22.0471 10.8196C21.4391 10.2116 20.7429 9.74568 19.9996 9.42173" stroke="#09547C" stroke-width="2" stroke-linecap="round"/>
<path d="M20.0002 4.88454C21.7797 5.52922 23.4494 6.56487 24.876 7.99153C26.3385 9.45398 27.3901 11.1718 28.0308 13.0015" stroke="#09547C" stroke-width="2" stroke-linecap="round"/>
</svg>
