<svg width="24" height="24" viewBox="0 0 24 24" fill="none" xmlns="http://www.w3.org/2000/svg">
<path d="M18.3038 12.8089L17.7539 12.2989L18.3038 12.8089ZM11.2327 5.73783L11.7427 6.28773L11.2327 5.73783ZM21.6611 4.27232L22.4048 4.36958L21.6611 4.27232ZM19.7693 2.38046L19.8665 3.12413L19.7693 2.38046ZM6.49459 12.6506L7.16801 12.9808L6.49459 12.6506ZM11.391 17.547L11.0608 16.8736L11.391 17.547ZM8.22752 10.1572C7.93463 9.86432 7.45975 9.86432 7.16686 10.1572C6.87397 10.4501 6.87397 10.925 7.16686 11.2179L8.22752 10.1572ZM12.8237 16.8747C13.1166 17.1676 13.5915 17.1676 13.8844 16.8747C14.1773 16.5818 14.1773 16.107 13.8844 15.8141L12.8237 16.8747ZM6.45975 18.6425C6.75265 18.3496 6.75265 17.8747 6.45975 17.5818C6.16686 17.2889 5.69199 17.2889 5.39909 17.5818L6.45975 18.6425ZM2.57067 20.4103C2.27777 20.7032 2.27777 21.178 2.57067 21.4709C2.86356 21.7638 3.33843 21.7638 3.63133 21.4709L2.57067 20.4103ZM4.33843 16.5212C4.63133 16.2283 4.63133 15.7534 4.33843 15.4605C4.04554 15.1676 3.57067 15.1676 3.27777 15.4605L4.33843 16.5212ZM1.86356 16.8747C1.57067 17.1676 1.57067 17.6425 1.86356 17.9354C2.15645 18.2283 2.63133 18.2283 2.92422 17.9354L1.86356 16.8747ZM8.58107 20.7638C8.87397 20.4709 8.87397 19.996 8.58107 19.7032C8.28818 19.4103 7.81331 19.4103 7.52041 19.7032L8.58107 20.7638ZM6.1062 21.1174C5.81331 21.4103 5.81331 21.8851 6.1062 22.178C6.39909 22.4709 6.87397 22.4709 7.16686 22.178L6.1062 21.1174ZM10.5963 21.082L11.3388 20.9759L10.5963 21.082ZM15.7582 17.6172L16.5007 17.5111L15.7582 17.6172ZM2.95956 13.4453L3.06562 12.7028L3.06562 12.7028L2.95956 13.4453ZM6.42438 8.2834L6.31831 9.02586L6.31831 9.02586L6.42438 8.2834ZM9.75047 16.63L7.41161 14.2911L6.35095 15.3518L8.68981 17.6906L9.75047 16.63ZM17.7539 12.2989C15.8602 14.3406 12.7855 16.028 11.0608 16.8736L11.7211 18.2204C13.4613 17.3673 16.757 15.5795 18.8537 13.3189L17.7539 12.2989ZM7.16801 12.9808C8.01355 11.256 9.70097 8.18137 11.7427 6.28773L10.7227 5.18793C8.46206 7.28458 6.6743 10.5802 5.82116 12.3205L7.16801 12.9808ZM20.9175 4.17506C20.6136 6.49841 19.8063 10.086 17.7539 12.2989L18.8537 13.3189C21.2492 10.7361 22.0963 6.72859 22.4048 4.36958L20.9175 4.17506ZM11.7427 6.28773C13.9556 4.23532 17.5432 3.42799 19.8665 3.12413L19.672 1.6368C17.313 1.94532 13.3055 2.79243 10.7227 5.18793L11.7427 6.28773ZM22.4048 4.36958C22.6159 2.75571 21.2859 1.42572 19.672 1.6368L19.8665 3.12413C20.5035 3.04082 21.0008 3.5381 20.9175 4.17506L22.4048 4.36958ZM7.41161 14.2911C7.04843 13.9279 6.95969 13.4057 7.16801 12.9808L5.82116 12.3205C5.31297 13.3571 5.56316 14.564 6.35095 15.3518L7.41161 14.2911ZM8.68981 17.6906C9.4776 18.4784 10.6845 18.7286 11.7211 18.2204L11.0608 16.8736C10.6359 17.0819 10.1136 16.9932 9.75047 16.63L8.68981 17.6906ZM7.16686 11.2179L12.8237 16.8747L13.8844 15.8141L8.22752 10.1572L7.16686 11.2179ZM5.39909 17.5818L2.57067 20.4103L3.63133 21.4709L6.45975 18.6425L5.39909 17.5818ZM3.27777 15.4605L1.86356 16.8747L2.92422 17.9354L4.33843 16.5212L3.27777 15.4605ZM7.52041 19.7032L6.1062 21.1174L7.16686 22.178L8.58107 20.7638L7.52041 19.7032ZM13.1773 6.97523C12.1033 8.04917 12.1033 9.79037 13.1773 10.8643L14.2379 9.80366C13.7498 9.3155 13.7498 8.52404 14.2379 8.03589L13.1773 6.97523ZM13.1773 10.8643C14.2512 11.9383 15.9924 11.9383 17.0664 10.8643L16.0057 9.80366C15.5175 10.2918 14.7261 10.2918 14.2379 9.80366L13.1773 10.8643ZM17.0664 10.8643C18.1403 9.79038 18.1403 8.04917 17.0664 6.97523L16.0057 8.03589C16.4939 8.52404 16.4939 9.3155 16.0057 9.80366L17.0664 10.8643ZM17.0664 6.97523C15.9924 5.90129 14.2512 5.90129 13.1773 6.97523L14.2379 8.03589C14.7261 7.54773 15.5175 7.54773 16.0057 8.03589L17.0664 6.97523ZM14.945 17.9354L11.7631 21.1174L12.8237 22.178L16.0057 18.996L14.945 17.9354ZM11.3388 20.9759L10.9145 18.0061L9.4296 18.2182L9.85387 21.1881L11.3388 20.9759ZM14.7329 15.7434L15.0157 17.7233L16.5007 17.5111L16.2178 15.5312L14.7329 15.7434ZM11.7631 21.1174C11.6174 21.263 11.3679 21.1799 11.3388 20.9759L9.85387 21.1881C10.0578 22.6157 11.804 23.1977 12.8237 22.178L11.7631 21.1174ZM16.0057 18.996C16.3952 18.6066 16.5786 18.0564 16.5007 17.5111L15.0157 17.7233C15.0269 17.8011 15.0007 17.8797 14.945 17.9354L16.0057 18.996ZM5.04552 8.03591L1.86354 11.2179L2.9242 12.2786L6.10618 9.09657L5.04552 8.03591ZM2.85349 14.1877L5.82334 14.612L6.03547 13.1271L3.06562 12.7028L2.85349 14.1877ZM8.51034 7.82378L6.53044 7.54094L6.31831 9.02586L8.29821 9.3087L8.51034 7.82378ZM1.86354 11.2179C0.843835 12.2376 1.4259 13.9838 2.85349 14.1877L3.06562 12.7028C2.86168 12.6737 2.77853 12.4242 2.9242 12.2786L1.86354 11.2179ZM6.10618 9.09657C6.16182 9.04093 6.24041 9.01473 6.31831 9.02586L6.53044 7.54094C5.98515 7.46304 5.43501 7.64642 5.04552 8.03591L6.10618 9.09657Z" fill="#09547C"/>
</svg>
